<svg width="16" height="16" viewBox="0 0 16 16" fill="none" xmlns="http://www.w3.org/2000/svg">
<circle cx="8" cy="8" r="8" fill="#F7BE33"/>
<path d="M9.92667 8.79583L11.0587 9.9275L7.995 12.9912L4.93167 9.92792L6.06375 8.79583L7.99542 10.7375L9.92667 8.79583ZM11.8587 6.86417L13 7.99583L11.8687 9.1275L10.7367 7.99583L11.8587 6.86417ZM7.99542 6.86417L9.12708 7.98583L7.995 9.11792L6.86333 7.99583L7.995 6.86458L7.99542 6.86417ZM4.13167 6.86417L5.25417 7.99583L4.1325 9.1175L3 7.99583L4.13167 6.86417ZM7.99583 3L11.0592 6.05417L9.92708 7.18542L7.99542 5.25375L6.06417 7.19542L4.93208 6.06375L7.99542 3.00042L7.99583 3Z" fill="white"/>
</svg>
